# xmcd
#
# Track frame offsets: 
#        180
#        13339
#        25584
#        39245
#        53629
#        67242
#        81599
#        93357
#        106317
#        117580
#        130361
#        142739
#        155807
#        166888
#        179467
#        194770
#        207539
#        219447
#
# Disc length: 3099 seconds
#
# Revision: 3
# Processed by: cddbd v1.5.2PL0 Copyright (c) Steve Scherf et al.
# Submitted via: ExactAudioCopy v0.99pb5
#
DISCID=0c0c1912
DTITLE=36 Masterpieces Of Blues 1927-1942 - BLUES - CD1 - 36 Masterpie
DTITLE=ces Of Blues Music
DYEAR=1900
DGENRE=
TTITLE0=Rhythm Willie - Breathtaking Blues
TTITLE1=Lead Belly - Lining Track
TTITLE2=The Mississippi Moaner - Mississippi Moan
TTITLE3=charlie Patton - Revenue Man Blues
TTITLE4=Robert Petway - Catfish Blues
TTITLE5=Mississippi Bracy - You Scoled Me And Drove Me From Your Door
TTITLE6=Honeyboy Edwards - Water Coast Blues
TTITLE7=Big Joe Williams - Baby, Please Don't Go
TTITLE8=Blind Blake - Blind Arthur's Breakdown
TTITLE9=Josh White - Blood Red River
TTITLE10=Tarter and Gay - Brownie Blues
TTITLE11=Sonny Terry - Train Whistle Blues
TTITLE12=Blind Willie Mc Tell - Dying Gambler
TTITLE13=Fred Mc Mullen - De Kalb Chain Gang
TTITLE14=Blind Lemon Jefferson - Lonesome House
TTITLE15=Texas Alexander - Levee Camp Moan
TTITLE16=jesse Thomas - No Good Woman Blues
TTITLE17=Oscar Woods - Don't Sell It, Don't Give It Away
EXTD=Frémeaux Assoicés S.A. 1995\nRéf - FA033\n
EXTT0=
EXTT1=
EXTT2=
EXTT3=
EXTT4=
EXTT5=
EXTT6=
EXTT7=
EXTT8=
EXTT9=
EXTT10=
EXTT11=
EXTT12=
EXTT13=
EXTT14=
EXTT15=
EXTT16=
EXTT17=
PLAYORDER=
